<?xml version="1.0" encoding="UTF-8"?>
<!-- Generated by Pixelmator Pro 3.6.14 -->
<svg width="1008" height="881" viewBox="0 0 1008 881" xmlns="http://www.w3.org/2000/svg">
    <g id="Layer-1">
        <g id="Group">
            <path id="Path" fill="#226dc6" stroke="none" d="M 898.41925 661.427368 C 893.551697 661.427368 888.796021 661.854248 884.099365 662.470093 L 608.40918 200.915466 L 562.808289 459.659424 L 642.057861 417.277771 L 812.690796 702.945068 C 797.865356 721.62146 788.950134 745.199158 788.950134 770.895508 C 788.950134 831.352356 837.961365 880.363586 898.41925 880.363586 C 958.877075 880.363586 1007.886353 831.352356 1007.886353 770.895508 C 1007.886353 710.4375 958.877075 661.427368 898.41925 661.427368 Z"/>
            <path id="path1" fill="#083677" stroke="none" d="M 590.082336 656.10022 L 590.082336 737.739929 L 214.576263 737.739929 C 200.524948 693.498169 159.144638 661.427368 110.247345 661.427368 C 49.791512 661.427368 0.780792 710.4375 0.780792 770.895508 C 0.780792 831.352356 49.791512 880.363586 110.247345 880.363586 C 153.107254 880.363586 190.109299 855.677002 208.080597 819.800781 L 760.669983 819.800781 L 590.082336 656.10022 Z"/>
            <path id="path2" fill="#226dc6" stroke="none" d="M 392.87674 585.554443 L 284.368439 545.730591 L 480.249084 217.794312 C 487.151611 219.15802 494.272888 219.905884 501.576294 219.905884 C 562.034119 219.905884 611.045349 170.895874 611.045349 110.437805 C 611.045349 49.980957 562.034119 0.969788 501.576294 0.969788 C 441.118408 0.969788 392.107178 49.980957 392.107178 110.437805 C 392.107178 133.585388 399.33783 155.019775 411.597229 172.703552 L 128.091476 647.345459 L 392.87674 585.554443 Z"/>
        </g>
    </g>
    <text id="Text" xml:space="preserve" x="815" y="-176" font-family="Helvetica" font-size="160" font-weight="700" fill="#f7ba00">Text</text>
</svg>
