<?xml version="1.0" encoding="UTF-8"?>
<!-- Generated by Pixelmator Pro 3.6.14 -->
<svg width="1066" height="1066" viewBox="0 0 1066 1066" xmlns="http://www.w3.org/2000/svg">
    <g id="Layer-1">
        <g id="Group">
            <path id="Path" fill="#226dc6" stroke="none" d="M 927.41925 753.427368 C 922.551697 753.427368 917.796021 753.854248 913.099365 754.470093 L 637.40918 292.915466 L 591.808289 551.659424 L 671.057861 509.277771 L 841.690796 794.945068 C 826.865356 813.62146 817.950134 837.199158 817.950134 862.895508 C 817.950134 923.352356 866.961365 972.363586 927.41925 972.363586 C 987.877075 972.363586 1036.886353 923.352356 1036.886353 862.895508 C 1036.886353 802.4375 987.877075 753.427368 927.41925 753.427368 Z"/>
            <path id="path1" fill="#083677" stroke="none" d="M 619.082336 748.10022 L 619.082336 829.739929 L 243.576263 829.739929 C 229.524948 785.498169 188.144638 753.427368 139.247345 753.427368 C 78.791512 753.427368 29.780792 802.4375 29.780792 862.895508 C 29.780792 923.352356 78.791512 972.363586 139.247345 972.363586 C 182.107254 972.363586 219.109299 947.677002 237.080597 911.800781 L 789.669983 911.800781 L 619.082336 748.10022 Z"/>
            <path id="path2" fill="#226dc6" stroke="none" d="M 421.87674 677.554443 L 313.368439 637.730591 L 509.249084 309.794312 C 516.151611 311.15802 523.272888 311.905884 530.576294 311.905884 C 591.034119 311.905884 640.045349 262.895874 640.045349 202.437805 C 640.045349 141.980957 591.034119 92.969788 530.576294 92.969788 C 470.118408 92.969788 421.107178 141.980957 421.107178 202.437805 C 421.107178 225.585388 428.33783 247.019775 440.597229 264.703552 L 157.091476 739.345459 L 421.87674 677.554443 Z"/>
        </g>
    </g>
</svg>
